{
  "accessors": [
    {
      "bufferView": 2,
      "componentType": 5126,
      "count": 2553,
      "max": [
        89.04638671875,
        85.15560150146484,
        254.117919921875
      ],
      "min": [
        -88.9551010131836,
        -14.823397636413574,
        10.409099578857422
      ],
      "type": "VEC3"
    },
    {
      "bufferView": 2,
      "byteOffset": 30636,
      "componentType": 5126,
      "count": 2553,
      "max": [
        0.9975373148918152,
        0.9930488467216492,
        0.9981191158294678
      ],
      "min": [
        -0.9986820220947266,
        -0.9997605681419373,
        -0.9998540878295898
      ],
      "type": "VEC3"
    },
    {
      "bufferView": 1,
      "componentType": 5126,
      "count": 2553,
      "max": [
        0.9938009977340698,
        0.9958000183105469
      ],
      "min": [
        0.01360000018030405,
        0.007899999618530273
      ],
      "type": "VEC2"
    },
    {
      "bufferView": 0,
      "componentType": 5125,
      "count": 8742,
      "type": "SCALAR"
    },
    {
      "bufferView": 2,
      "byteOffset": 61272,
      "componentType": 5126,
      "count": 5481,
      "max": [
        61.225868225097656,
        27.88089942932129,
        381.3747253417969
      ],
      "min": [
        -118.00700378417969,
        -88.81778717041016,
        0.03567099943757057
      ],
      "type": "VEC3"
    },
    {
      "bufferView": 2,
      "byteOffset": 127044,
      "componentType": 5126,
      "count": 5481,
      "max": [
        0.9996829628944397,
        0.9999620914459229,
        0.9986950159072876
      ],
      "min": [
        -0.9998540878295898,
        -0.9997614026069641,
        -0.9999978542327881
      ],
      "type": "VEC3"
    },
    {
      "bufferView": 1,
      "byteOffset": 20424,
      "componentType": 5126,
      "count": 5481,
      "max": [
        0.997901976108551,
        0.9991999864578247
      ],
      "min": [
        0.004800000227987766,
        0.0032999999821186066
      ],
      "type": "VEC2"
    },
    {
      "bufferView": 0,
      "byteOffset": 34968,
      "componentType": 5125,
      "count": 20913,
      "type": "SCALAR"
    }
  ],
  "asset": {
    "extras": {
      "author": "VorLucky (https://sketchfab.com/bladeeee)",
      "license": "CC-BY-4.0 (http://creativecommons.org/licenses/by/4.0/)",
      "source": "https://sketchfab.com/3d-models/one-piece-whitebeard-13ebbf108c7949959608b341dbde80d3",
      "title": "One Piece - WhiteBeard"
    },
    "generator": "Sketchfab-16.58.0",
    "version": "2.0"
  },
  "bufferViews": [
    {
      "buffer": 0,
      "byteLength": 118620,
      "name": "floatBufferViews",
      "target": 34963
    },
    {
      "buffer": 0,
      "byteLength": 64272,
      "byteOffset": 118620,
      "byteStride": 8,
      "name": "floatBufferViews",
      "target": 34962
    },
    {
      "buffer": 0,
      "byteLength": 192816,
      "byteOffset": 182892,
      "byteStride": 12,
      "name": "floatBufferViews",
      "target": 34962
    }
  ],
  "buffers": [
    {
      "byteLength": 375708,
      "uri": "scene.bin"
    }
  ],
  "images": [
    {
      "uri": "textures/Material.001_baseColor.png"
    },
    {
      "uri": "textures/edward001_cloak_d.001_baseColor.png"
    }
  ],
  "materials": [
    {
      "doubleSided": true,
      "name": "Material.001",
      "pbrMetallicRoughness": {
        "baseColorTexture": {
          "index": 0
        },
        "metallicFactor": 0.0,
        "roughnessFactor": 0.6
      }
    },
    {
      "doubleSided": true,
      "name": "edward001_cloak_d.001",
      "pbrMetallicRoughness": {
        "baseColorTexture": {
          "index": 1
        },
        "metallicFactor": 0.0,
        "roughnessFactor": 0.6
      }
    }
  ],
  "meshes": [
    {
      "name": "Object_0",
      "primitives": [
        {
          "attributes": {
            "NORMAL": 1,
            "POSITION": 0,
            "TEXCOORD_0": 2
          },
          "indices": 3,
          "material": 0,
          "mode": 4
        }
      ]
    },
    {
      "name": "Object_1",
      "primitives": [
        {
          "attributes": {
            "NORMAL": 5,
            "POSITION": 4,
            "TEXCOORD_0": 6
          },
          "indices": 7,
          "material": 1,
          "mode": 4
        }
      ]
    }
  ],
  "nodes": [
    {
      "children": [
        1
      ],
      "matrix": [
        1.0,
        0.0,
        0.0,
        0.0,
        0.0,
        2.220446049250313e-16,
        -1.0,
        0.0,
        0.0,
        1.0,
        2.220446049250313e-16,
        0.0,
        0.0,
        0.0,
        0.0,
        1.0
      ],
      "name": "Sketchfab_model"
    },
    {
      "children": [
        2,
        3
      ],
      "name": "One Piece - WhiteBeard.obj.cleaner.materialmerger.gles"
    },
    {
      "mesh": 0,
      "name": "Object_2"
    },
    {
      "mesh": 1,
      "name": "Object_3"
    }
  ],
  "samplers": [
    {
      "magFilter": 9729,
      "minFilter": 9987,
      "wrapS": 10497,
      "wrapT": 10497
    }
  ],
  "scene": 0,
  "scenes": [
    {
      "name": "Sketchfab_Scene",
      "nodes": [
        0
      ]
    }
  ],
  "textures": [
    {
      "sampler": 0,
      "source": 0
    },
    {
      "sampler": 0,
      "source": 1
    }
  ]
}
